<svg width="30" height="30" viewBox="0 0 30 30" fill="none" xmlns="http://www.w3.org/2000/svg">
<g clip-path="url(#clip0_1524_1566)">
<path d="M9.99677 0.6C8.91117 0.879369 7.89158 1.37081 6.99677 2.046C5.95277 2.952 1.42877 8.334 0.192766 11.088C0.0483619 11.3925 -0.0174133 11.7283 0.00145346 12.0648C0.0203202 12.4012 0.123227 12.7276 0.300766 13.014L0.390766 13.134C0.642766 13.434 0.390766 15.102 0.390766 16.494C0.395032 17.165 0.344867 17.8352 0.240766 18.498C0.237837 18.5279 0.237837 18.5581 0.240766 18.588C0.168766 19.11 -0.113234 21.306 0.966766 22.074C2.04677 22.842 3.27677 23.562 3.78077 24.414C4.20077 25.134 4.70477 26.748 8.88677 28.8C10.4391 29.5726 12.1575 29.9517 13.8908 29.904C14.5208 29.904 15.2588 29.904 16.0568 29.904C17.0108 29.952 17.8568 29.958 18.5288 29.946C19.9163 29.9316 21.2657 29.4895 22.3928 28.68C24.2473 27.3099 25.8012 25.5741 26.9588 23.58C29.9588 18.576 29.6228 19.926 29.9588 17.022C30.0918 15.6756 29.9406 14.3162 29.5148 13.032C29.1326 11.798 28.8575 10.5333 28.6928 9.252C28.5964 8.39231 28.4319 7.54163 28.2008 6.708C27.7028 5.34 21.0008 0.078 19.4948 0C18.199 0.012773 16.9073 0.147366 15.6368 0.402C15.6368 0.402 10.4288 0.486 9.99677 0.6Z" fill="#19A6B8"/>
<path d="M0.193254 11.088C0.0488502 11.3925 -0.016925 11.7283 0.00194174 12.0648C0.0208085 12.4013 0.123715 12.7276 0.301254 13.014L0.391254 13.134C0.643254 13.434 0.391254 15.102 0.391254 16.494C0.39552 17.165 0.345355 17.8352 0.241254 18.498C0.238325 18.528 0.238325 18.5581 0.241254 18.588C0.169254 19.11 -0.112746 21.306 0.967254 22.074C2.04725 22.842 3.27725 23.562 3.78125 24.414C4.20125 25.134 4.70525 26.748 8.88725 28.8C10.4396 29.5726 12.158 29.9517 13.8913 29.904C14.5213 29.904 15.2593 29.904 16.0573 29.904C17.0113 29.952 17.8573 29.958 18.5293 29.946C19.9168 29.9316 21.2662 29.4895 22.3933 28.68C24.2478 27.3099 25.8017 25.5742 26.9593 23.58C28.2253 21.462 28.8913 20.484 29.2693 19.842C29.2033 19.998 4.34525 5.05204 4.33325 5.04004C2.72525 7.02004 0.907254 9.49204 0.193254 11.088Z" fill="#2EA5B1"/>
<path d="M29.2019 16.4039C29.0039 15.4079 29.1179 15.3419 28.9439 14.7179C28.7778 14.221 28.6435 13.7139 28.5419 13.1999C28.3739 12.2939 28.6019 12.1079 28.0859 10.4459C27.5699 8.78389 28.0019 9.76189 27.8879 8.81989C27.7739 7.87789 27.8879 7.97389 27.6599 7.45789C27.4319 6.94189 24.2999 4.30789 21.5639 2.39989C20.8019 1.87789 21.0839 1.25989 19.3379 0.821889C17.5919 0.383889 17.1479 1.27189 15.6899 0.995889C14.2319 0.719889 14.4479 1.18789 13.1159 1.21789C11.784 1.24789 10.116 1.49389 9.19795 2.29189C8.27995 3.08989 6.44395 5.13589 6.41995 5.16589C6.41995 5.16589 4.65595 8.39989 4.43995 10.0379C4.30615 11.0876 4.30615 12.1501 4.43995 13.1999C4.48195 14.1899 4.30795 14.0459 4.71595 15.2699C5.12395 16.4939 4.95595 16.6919 5.37595 18.0839C5.79595 19.4759 6.59995 19.3319 7.09795 20.8799C7.59595 22.4279 8.99995 20.7419 8.99995 21.9179C8.99995 23.0939 10.7459 23.0219 11.1299 23.3219C11.5139 23.6219 9.25795 25.8899 10.2779 26.3999C11.2979 26.9099 14.82 26.8919 16.7699 27.3959C18.7199 27.8999 22.1699 27.2399 22.8719 27.1979C23.5739 27.1559 24.7679 25.2779 25.3259 24.8519C25.8839 24.4259 29.2859 19.9619 29.2859 19.9619C29.4168 19.2436 29.4751 18.5139 29.4599 17.7839C29.4899 16.4699 29.3999 17.3999 29.2019 16.4039Z" fill="#1C6B77"/>
<path d="M23.3999 11.5739C21.2039 4.83588 15.2759 0.749883 10.1999 2.44788C5.12387 4.14588 2.69987 10.9799 4.89587 17.7239C5.25055 18.8035 5.71288 19.8447 6.27587 20.8319C7.34387 20.0399 7.19987 19.3619 7.19987 19.3619C7.19987 19.3619 8.18387 17.9999 8.57987 18.5099C8.97587 19.0199 8.97587 18.8399 9.07187 19.3619C9.16787 19.8839 10.1939 19.6199 9.07187 20.4359C7.94987 21.2519 9.74987 20.3159 7.94987 21.2459C7.5844 21.4336 7.20288 21.5882 6.80987 21.7079C9.63587 25.9619 14.1299 28.1819 18.1319 26.8499C23.2439 25.1519 25.6019 18.3119 23.3999 11.5739Z" fill="#138297"/>
<path d="M5.72377 21.186C4.40977 21.924 5.43577 22.116 6.80977 21.708C6.62377 21.426 6.44977 21.108 6.27577 20.832C6.09987 20.9622 5.91546 21.0805 5.72377 21.186Z" fill="#207A87"/>
<path d="M9.07188 20.436C10.1939 19.62 9.16188 19.878 9.07188 19.362C8.98188 18.846 8.56188 19.362 8.16588 18.84C7.76988 18.318 7.21188 19.362 7.21188 19.362C7.21188 19.362 7.34388 20.04 6.27588 20.832C6.44988 21.132 6.62388 21.432 6.80988 21.708C7.2029 21.5883 7.58442 21.4337 7.94988 21.246C9.74988 20.316 7.94988 21.246 9.07188 20.436Z" fill="#0A6977"/>
<path d="M20.1898 19.5779C20.1898 19.5779 22.9018 20.6219 24.0538 20.3699C25.2058 20.1179 25.2538 19.3019 25.9858 18.3659C26.2678 18.0119 26.1418 17.4719 27.0478 17.2079C27.9538 16.9439 26.1058 14.8679 26.1058 14.8679L20.1898 19.5779Z" fill="#144C54"/>
<path d="M20.7839 5.26807C20.7839 5.26807 16.6738 6.19207 16.5178 9.00007C16.4518 10.2601 15.6838 10.6261 15.4018 11.3581C15.2315 11.9067 14.972 12.4236 14.6338 12.8881C14.1898 13.5241 14.1898 15.3661 14.3218 16.0141C14.4567 16.6491 14.8169 17.2139 15.3358 17.6041C15.9358 18.2041 16.3918 18.2461 17.8678 18.6661C19.3438 19.0861 19.4218 19.4701 20.3999 19.6201C21.161 19.764 21.9464 19.7112 22.6814 19.4665C23.4164 19.2219 24.0768 18.7935 24.5999 18.2221L20.7839 5.26807Z" fill="#3DAAB2"/>
<path d="M18.4019 26.6639C18.2081 26.9157 17.9955 27.1524 17.7659 27.3719C16.9692 28.2276 15.8875 28.7632 14.7239 28.8779C13.3679 28.8779 10.3319 28.7879 9.2099 28.1759C8.21926 27.5193 7.3705 26.6706 6.71391 25.6799C6.67463 25.0966 6.67463 24.5112 6.71391 23.9279C6.71391 23.9279 7.11591 23.1539 8.73591 23.3279C8.9347 23.3557 9.13518 23.3697 9.3359 23.3699C11.1659 23.3699 12.1799 22.3079 13.0679 22.4819C14.0519 22.6679 16.9499 23.5199 17.4179 23.8979C17.8859 24.2759 19.2299 25.5779 18.4019 26.6639Z" fill="#59BBCE"/>
<path d="M18.1859 26.7361C17.3999 27.7621 15.9899 28.8001 14.8019 28.8001C12.8099 28.8001 10.3619 28.6261 9.46785 28.1401C8.56068 27.5239 7.77375 26.7471 7.14585 25.8481C7.11935 25.3484 7.11935 24.8477 7.14585 24.3481C7.30292 24.2167 7.48475 24.1183 7.68057 24.0585C7.87639 23.9987 8.08222 23.9788 8.28585 24.0001C8.44436 23.9988 8.60276 24.0088 8.75985 24.0301C8.98066 24.059 9.20316 24.073 9.42585 24.0721C10.2945 24.049 11.1488 23.8447 11.9339 23.4721C12.2544 23.3138 12.5991 23.2103 12.9539 23.1661C12.9976 23.1598 13.0421 23.1598 13.0859 23.1661C13.8216 23.3288 14.5486 23.5291 15.2639 23.7661C15.9569 23.9459 16.6287 24.1993 17.2679 24.5221C17.4479 24.6541 18.8699 25.8421 18.1859 26.7361Z" fill="#15424D"/>
<path d="M15.552 25.5841C15.3957 26.0355 15.1393 26.4458 14.802 26.7841C14.6029 26.9422 14.3733 27.0574 14.1275 27.1225C13.8818 27.1876 13.6252 27.201 13.374 27.1621C12.6939 26.9406 11.9918 26.7937 11.28 26.7241C10.68 26.7241 9.47999 27.0361 8.91599 26.7241C8.35199 26.4121 8.60399 26.1241 8.31599 25.7101C8.02799 25.2961 8.31599 24.0301 8.31599 24.0301C8.4745 24.0288 8.6329 24.0389 8.78999 24.0601C9.01079 24.089 9.2333 24.103 9.45599 24.1021C10.3247 24.0791 11.1789 23.8747 11.964 23.5021C12.2845 23.3438 12.6293 23.2404 12.984 23.1961C13.0278 23.1898 13.0722 23.1898 13.116 23.1961C13.8517 23.3588 14.5787 23.5591 15.294 23.7961L15.57 24.2701C15.6408 24.7058 15.6347 25.1505 15.552 25.5841Z" fill="#002931"/>
<path d="M2.40005 22.1039H2.27405C2.04605 22.0319 0.960049 21.4319 0.834049 21.1079C0.810525 21.046 0.810525 20.9777 0.834049 20.9159C0.857446 20.7005 0.857446 20.4832 0.834049 20.2679V20.1839L0.876049 20.1179C0.885315 20.0361 0.885315 19.9536 0.876049 19.8719C0.829984 19.6305 0.868105 19.3806 0.984049 19.1639C1.03573 19.0965 1.10341 19.0431 1.18094 19.0086C1.25847 18.974 1.34341 18.9593 1.42805 18.9659C1.55573 18.969 1.68261 18.9871 1.80605 19.0199C2.13483 19.0965 2.46725 19.1566 2.80205 19.1999C3.51005 19.3199 4.00205 19.3979 4.00205 19.8719C4.01303 19.9838 4.03514 20.0943 4.06805 20.2019C4.15557 20.3884 4.17406 20.5999 4.12022 20.7988C4.06638 20.9977 3.94371 21.171 3.77405 21.2879L3.54605 21.4679C3.22805 21.7789 2.83221 21.9986 2.40005 22.1039Z" fill="#299781"/>
<path d="M0.96576 20.2259C1.14576 19.9559 0.60576 18.8879 1.75776 19.1879C2.90976 19.4879 3.83376 19.4219 3.85776 19.8899C3.88176 20.3579 4.24176 20.7299 3.70176 21.1319C3.16176 21.5339 2.62776 22.0079 2.32176 21.9059C2.01576 21.8039 0.91776 21.1319 0.96576 20.9639C0.993557 20.7187 0.993557 20.4711 0.96576 20.2259Z" fill="#167280"/>
<path d="M6.9839 10.884L6.5999 11.208H6.5279H6.4499C6.25399 11.2599 6.05254 11.2881 5.8499 11.292C5.57511 11.3113 5.30257 11.2309 5.0822 11.0656C4.86183 10.9003 4.70836 10.6612 4.6499 10.392C4.6499 10.392 4.6679 12.6 7.7999 12.6C9.03414 12.5917 10.2659 12.4874 11.4839 12.288C11.4237 10.9386 11.1774 9.604 10.7519 8.32202C9.444 9.09708 8.18557 9.95273 6.9839 10.884Z" fill="#358891"/>
<path d="M10.6258 7.96207C10.4301 7.43049 10.1934 6.91494 9.91782 6.42007C9.79182 6.20407 9.67182 5.99407 9.54582 5.82007C8.76582 5.93407 7.50582 7.24207 6.76182 8.42407C6.63472 8.63055 6.53964 8.8551 6.47982 9.09007C6.42093 9.35189 6.41556 9.62291 6.46402 9.88685C6.51248 10.1508 6.61377 10.4022 6.76182 10.6261C6.76182 10.6261 7.77582 9.82807 9.00582 8.99407C9.60582 8.59807 10.1698 8.26807 10.6378 8.00407L10.6258 7.96207Z" fill="#0F363F"/>
<path d="M9.59998 3.31207C10.9201 3.29397 12.2398 3.3742 13.548 3.55207C14.49 3.78607 15.222 3.55207 15.522 4.38007C15.618 4.63207 15.588 4.72807 15.726 5.26807C15.9088 5.80075 15.944 6.37298 15.828 6.92407C15.654 7.63807 14.826 10.7461 12.738 11.7601" fill="#1C6B77"/>
<path d="M14.0877 7.00195C13.9437 4.37395 13.0077 4.00195 13.0077 4.00195C13.2007 4.14579 13.3518 4.33838 13.4457 4.55995C13.5077 4.71647 13.5383 4.88364 13.5357 5.05195C13.5357 7.16995 12.1017 7.64395 12.0357 7.66195C11.5881 7.84512 11.1549 8.06173 10.7397 8.30995C11.1652 9.59193 11.4116 10.9265 11.4717 12.276C12.1186 12.1719 12.7172 11.8695 13.1847 11.4106C13.6523 10.9516 13.9657 10.3588 14.0817 9.71395C14.1759 8.81251 14.1779 7.90381 14.0877 7.00195Z" fill="#247275"/>
<path d="M13.512 4.66192C13.4213 4.43848 13.2695 4.2451 13.074 4.10392C12.342 3.53992 10.95 3.42592 9.66004 3.42592C9.06588 3.39949 8.47194 3.48288 7.90804 3.67192C7.85404 3.67192 7.72804 3.77392 7.72804 3.77392C7.43404 3.88792 6.41404 4.31992 5.51404 6.05392C4.85193 7.22644 4.55328 8.5693 4.65604 9.91192C4.65828 10.1305 4.68648 10.348 4.74004 10.5599C4.79665 10.8243 4.94539 11.06 5.15971 11.2249C5.37403 11.3897 5.63997 11.473 5.91004 11.4599C6.11322 11.4576 6.31512 11.4273 6.51004 11.3699H6.58804H6.66604L7.04404 11.0459C8.24235 10.0901 9.49657 9.2065 10.8 8.39992C11.2152 8.15344 11.6484 7.93882 12.096 7.75792C12.162 7.75792 13.59 7.25992 13.59 5.14192C13.5956 4.97836 13.5691 4.8153 13.512 4.66192ZM12 7.40392C12 7.40392 11.49 7.63792 10.698 8.08192C10.236 8.33992 9.67804 8.68192 9.07204 9.07192C7.87204 9.90592 6.82804 10.7039 6.82804 10.7039L6.49204 10.9859C5.54404 11.2739 5.09404 10.8539 4.90204 10.4459C4.83125 10.3009 4.78656 10.1445 4.77004 9.98392C4.67003 8.63183 4.95062 7.27875 5.58004 6.07792C6.54004 4.19992 7.72804 3.84592 7.72804 3.84592C8.27404 3.37792 11.61 3.31192 12.798 4.32592C12.9274 4.42375 13.0329 4.5496 13.1067 4.69404C13.1805 4.83849 13.2206 4.99776 13.224 5.15992C13.23 7.01392 12 7.40392 12 7.40392Z" fill="#1298B3"/>
<path d="M13.4459 4.54198C13.352 4.32041 13.2008 4.12782 13.0079 3.98398C12.2699 3.42598 10.8779 3.31198 9.58788 3.31198C8.99619 3.28637 8.40472 3.36767 7.84188 3.55198L7.66188 3.65398C7.34388 3.77998 6.31788 4.19998 5.39988 5.94598C4.74624 7.12345 4.45407 8.46742 4.55988 9.80998C4.57865 10.0127 4.61478 10.2134 4.66788 10.41C4.72634 10.6792 4.87981 10.9183 5.10018 11.0836C5.32055 11.2489 5.59309 11.3292 5.86788 11.31C6.07052 11.3061 6.27196 11.2779 6.46788 11.226H6.54588H6.61788L7.00188 10.902C8.19885 9.96083 9.45328 9.09515 10.7579 8.30998C11.173 8.06176 11.6062 7.84515 12.0539 7.66198C12.1199 7.66198 13.5539 7.16998 13.5539 5.05198C13.5531 4.87638 13.5164 4.70281 13.4459 4.54198ZM11.9279 7.28398C11.9279 7.28398 11.4119 7.52398 10.6259 7.96198C10.1579 8.22598 9.59988 8.56198 8.99388 8.95198C7.76388 9.78598 6.74988 10.584 6.74988 10.584L6.41988 10.872C5.46588 11.154 5.01588 10.734 4.82388 10.326C4.75442 10.1804 4.70981 10.0243 4.69188 9.86398C4.59171 8.5138 4.87234 7.1626 5.50188 5.96398C6.46788 4.10398 7.65588 3.72598 7.65588 3.72598C8.19588 3.26398 11.5319 3.19798 12.7199 4.20598C12.8493 4.30381 12.9548 4.42966 13.0286 4.5741C13.1024 4.71855 13.1425 4.87782 13.1459 5.03998C13.1579 6.89998 11.9279 7.28398 11.9279 7.28398Z" fill="#59BBCE"/>
<path d="M12.732 4.20014C11.532 3.19213 8.20797 3.25813 7.66797 3.72013C8.4187 4.27616 9.05615 4.97063 9.54597 5.76614C9.93288 5.72493 10.3231 5.72493 10.71 5.76614H10.884C11.0513 5.79711 11.2108 5.86087 11.3534 5.95376C11.4959 6.04665 11.6187 6.16682 11.7147 6.30736C11.8106 6.4479 11.8777 6.60602 11.9123 6.77263C11.9469 6.93924 11.9481 7.11104 11.916 7.27814C11.916 7.27814 13.146 6.89414 13.146 5.02814C13.1431 4.86798 13.1044 4.71051 13.0328 4.56724C12.9611 4.42397 12.8584 4.29854 12.732 4.20014Z" fill="#115965"/>
<path d="M9.53397 5.77793C9.04415 4.98243 8.40669 4.28795 7.65596 3.73193C7.65596 3.73193 6.45596 4.10993 5.50196 5.96993C4.87242 7.16856 4.59178 8.51976 4.69195 9.86993C4.70988 10.0302 4.7545 10.1864 4.82396 10.3319C5.01596 10.7399 5.46596 11.1599 6.41996 10.8779L6.74996 10.5899C6.60192 10.3661 6.50062 10.1147 6.45216 9.85072C6.4037 9.58677 6.40908 9.31575 6.46796 9.05393C6.52891 8.82312 6.62396 8.6027 6.74996 8.39993C7.49396 7.19993 8.75397 5.90993 9.53397 5.79593V5.77793Z" fill="#196C7B"/>
<path d="M10.8959 5.77211H10.7219C10.335 5.73091 9.94477 5.73091 9.55786 5.77211C9.68386 5.95811 9.80386 6.16811 9.92986 6.37211C10.2055 6.86698 10.4422 7.38254 10.6379 7.91411C11.4239 7.47611 11.9398 7.23611 11.9398 7.23611C11.9906 6.90421 11.9099 6.56561 11.715 6.29224C11.52 6.01888 11.2262 5.83229 10.8959 5.77211Z" fill="#0F363F"/>
<path d="M26.262 15.1199C25.254 13.4999 24.084 12.6479 24.084 11.8919C24.084 11.1359 24.642 9.90593 24.084 8.24393C23.526 6.58193 23.718 5.66993 22.134 5.29193C21.6608 5.18672 21.1704 5.18589 20.6968 5.28951C20.2233 5.39313 19.778 5.59871 19.392 5.89193C19.2124 6.05433 19.044 6.22873 18.888 6.41393L18.834 6.48593C18.894 6.55193 18.96 6.63593 19.044 6.71993C19.2255 6.47262 19.4261 6.23991 19.644 6.02393C20.2103 5.63491 20.8772 5.41819 21.564 5.39993C21.7661 5.40099 21.9674 5.42515 22.164 5.47193C23.22 5.72393 23.364 6.26993 23.682 7.36793C23.766 7.65593 23.856 7.96793 23.964 8.30393C24.2404 9.18719 24.2694 10.1293 24.048 11.0279C24.0111 11.2923 23.9951 11.5591 24 11.8259C24 12.4259 24.42 12.9059 24.996 13.5959C25.4299 14.1058 25.8307 14.6429 26.196 15.2039C26.712 16.0199 26.424 16.2719 25.728 16.8779C25.3298 17.2018 24.9784 17.5794 24.684 17.9999C24.5866 18.1463 24.4599 18.271 24.312 18.3659C24.3158 18.4038 24.3158 18.442 24.312 18.4799C24.4924 18.3495 24.647 18.1867 24.768 17.9999C25.614 16.6739 27.168 16.5659 26.262 15.1199Z" fill="#59BBCE"/>
<path d="M19.8 7.68598L19.944 7.63198C20.2751 7.55206 20.6212 7.55865 20.949 7.65112C21.2769 7.74359 21.5754 7.91882 21.816 8.15998C22.1177 8.73984 22.2742 9.38429 22.272 10.038C22.1706 10.7243 22.1706 11.4217 22.272 12.108C22.788 12.4713 23.2214 12.9395 23.544 13.482C23.5853 14.195 23.5124 14.91 23.328 15.6C23.388 15.714 23.472 15.846 23.586 16.02C24.054 16.746 23.898 16.992 24.12 17.544C24.2267 17.8146 24.2914 18.0998 24.312 18.39C24.4599 18.295 24.5866 18.1704 24.684 18.024C24.9747 17.6043 25.322 17.2267 25.716 16.902C26.412 16.302 26.7 16.044 26.184 15.228C25.8186 14.6669 25.4178 14.1298 24.984 13.62C24.384 12.93 23.988 12.42 23.988 11.85C23.9996 11.5737 24.0337 11.2988 24.09 11.028C24.314 10.1212 24.2828 9.17015 24 8.27998C23.892 7.94398 23.802 7.63198 23.718 7.34398C23.4 6.24598 23.244 5.69998 22.2 5.44798C22.0034 5.40119 21.8021 5.37704 21.6 5.37598C20.8967 5.3849 20.2119 5.60204 19.632 5.99998C19.4141 6.21595 19.2135 6.44866 19.032 6.69598C19.272 6.98998 19.548 7.33198 19.8 7.68598Z" fill="#196C7B"/>
<path d="M20.5018 11.7839C20.8459 12.2204 21.2317 12.6223 21.6538 12.9839C22.1218 13.4579 22.4038 13.5839 22.5898 14.0399C22.6806 14.3221 22.8055 14.5921 22.9618 14.8439C23.1538 15.1559 23.1418 15.2219 23.3278 15.5519C23.5117 14.87 23.5866 14.1633 23.5498 13.4579C23.2272 12.9155 22.7938 12.4473 22.2778 12.0839C22.1765 11.3976 22.1765 10.7002 22.2778 10.0139C22.28 9.36024 22.1236 8.71579 21.8218 8.13592C21.5812 7.89476 21.2827 7.71953 20.9548 7.62707C20.627 7.5346 20.2809 7.52801 19.9498 7.60792L19.8058 7.66192C20.1301 8.06252 20.3671 8.52642 20.5018 9.02392C20.6218 9.98992 20.0038 11.1239 20.5018 11.7839Z" fill="#0F363F"/>
<path d="M24.2221 18.3659C23.6071 18.7136 22.9055 18.8781 22.2001 18.8399C21.5851 18.8591 20.9727 18.7529 20.4001 18.5279C19.9561 18.3079 19.4661 17.5779 18.9301 16.3379L18.8701 16.1939C18.6541 15.6779 18.4261 15.0779 18.1921 14.3939C17.9618 13.4072 17.9618 12.3807 18.1921 11.3939C18.2994 10.7878 18.3536 10.1735 18.3541 9.55794C18.3503 9.32094 18.3181 9.08525 18.2581 8.85594C18.2547 8.804 18.2547 8.75189 18.2581 8.69994C18.2548 7.97167 18.51 7.26586 18.9781 6.70794C18.9001 6.62394 18.9001 6.55794 18.8401 6.49194C18.3541 7.09194 17.6881 8.00994 17.9221 8.94594C18.2821 10.4579 17.2561 12.7139 17.8621 14.5019C18.0661 15.1019 18.2881 15.7019 18.5341 16.3019C19.0381 17.5019 19.6261 18.5399 20.2561 18.8579C20.9077 19.0951 21.6042 19.1837 22.2945 19.1173C22.9848 19.0509 23.6516 18.8311 24.2461 18.4739C24.2461 18.4739 24.2281 18.4379 24.2221 18.3659Z" fill="#1298B3"/>
<path d="M24.3121 18.3661C23.7021 18.7099 23.0074 18.8742 22.3081 18.8401C21.6932 18.8576 21.0811 18.7515 20.5081 18.5281C20.0701 18.3061 19.5781 17.5741 19.0441 16.3381L18.9841 16.1941C18.7681 15.6781 18.5401 15.0781 18.3061 14.3941C18.0758 13.4074 18.0758 12.3809 18.3061 11.3941C18.4105 10.7876 18.4646 10.1735 18.4681 9.55812C18.4584 9.32161 18.4262 9.08655 18.3721 8.85612C18.3658 8.80431 18.3658 8.75194 18.3721 8.70012C18.3657 7.97131 18.6212 7.26443 19.0921 6.70812C19.0081 6.62412 18.9421 6.54012 18.8821 6.47412C18.3961 7.07412 17.8021 8.01012 18.0361 8.94612C18.4021 10.4581 17.3701 12.7141 17.9821 14.5021C18.1861 15.1021 18.4081 15.7021 18.6541 16.3021C19.1581 17.5021 19.7461 18.5401 20.3701 18.8581C21.0217 19.0953 21.7182 19.1839 22.4085 19.1175C23.0988 19.051 23.7656 18.8312 24.3601 18.4741C24.3479 18.4365 24.3318 18.4003 24.3121 18.3661Z" fill="#59BBCE"/>
<path d="M23.5861 15.9959C23.4721 15.8219 23.3881 15.6899 23.3281 15.5759C23.3281 15.7079 23.2861 15.8339 23.2681 15.9359C23.1781 16.5959 20.7421 17.5139 19.5241 16.5359C19.3506 16.3992 19.1637 16.2806 18.9661 16.1819L19.0261 16.3259C19.5601 17.5619 20.0521 18.2939 20.4901 18.5159C21.0631 18.7393 21.6752 18.8454 22.2901 18.8279C22.9894 18.862 23.6841 18.6977 24.2941 18.3539C24.2735 18.0638 24.2088 17.7785 24.1021 17.5079C23.8981 16.9679 24.0541 16.7219 23.5861 15.9959Z" fill="#0E5A65"/>
<path d="M18.3239 8.70611C18.3177 8.75793 18.3177 8.8103 18.3239 8.86211C18.378 9.09254 18.4102 9.3276 18.4199 9.56411C18.4199 9.47411 18.8819 8.10011 19.7819 7.68611C19.5239 7.33211 19.2479 6.99011 19.0199 6.71411C18.5576 7.2738 18.3108 7.98034 18.3239 8.70611Z" fill="#0E5A65"/>
<path d="M23.2681 15.936C23.2681 15.834 23.3041 15.708 23.3281 15.576C23.1421 15.246 23.1541 15.18 22.9621 14.868C22.8059 14.6162 22.6809 14.3462 22.5901 14.064C22.4041 13.608 22.1221 13.464 21.6541 13.008C21.232 12.6464 20.8462 12.2445 20.5021 11.808C20.0041 11.148 20.6221 10.008 20.5021 9.07203C20.3688 8.56558 20.1295 8.09318 19.8001 7.68604C18.9001 8.10003 18.4621 9.48603 18.4381 9.56403C18.4367 10.1793 18.3845 10.7934 18.2821 11.4C18.0518 12.3868 18.0518 13.4133 18.2821 14.4C18.5161 15.084 18.7441 15.684 18.9601 16.2C19.1577 16.2987 19.3447 16.4173 19.5181 16.554C20.7421 17.514 23.1781 16.596 23.2681 15.936Z" fill="#032C35"/>
<path d="M29.502 13.08C29.1198 11.846 28.8448 10.5813 28.68 9.3C28.5901 8.42448 28.4296 7.55766 28.2 6.708C27.702 5.34 21 0.078 19.494 0C18.1983 0.012773 16.9066 0.147366 15.636 0.402C15.636 0.402 10.428 0.48 9.99603 0.606C8.91043 0.885369 7.89085 1.37681 6.99603 2.052C6.04256 2.99189 5.1526 3.9941 4.33203 5.052C4.33203 5.052 6.35403 3.012 7.33203 2.184C8.31003 1.356 10.2 1.128 11.64 1.092C13.08 1.056 13.044 1.194 14.64 1.476C16.236 1.758 16.44 0.582 18.318 1.02C20.196 1.458 20.028 1.758 20.856 2.28C23.856 4.182 27.252 6.804 27.498 7.326C27.744 7.848 27.624 7.758 27.75 8.7C27.876 9.642 27.408 8.67 27.966 10.338C28.524 12.006 28.278 12.192 28.47 13.104C28.5766 13.6278 28.721 14.1431 28.902 14.646C29.088 15.276 28.968 15.336 29.184 16.344C29.4 17.352 28.848 16.536 29.112 17.802C29.3067 18.4799 29.3618 19.1902 29.274 19.89C29.796 19.008 29.766 18.744 29.952 17.07C30.0832 15.7232 29.9298 14.3638 29.502 13.08Z" fill="#41D6E1"/>
<path d="M6.1798 14.928C6.61389 14.928 6.9658 14.5734 6.9658 14.136C6.9658 13.6986 6.61389 13.344 6.1798 13.344C5.7457 13.344 5.3938 13.6986 5.3938 14.136C5.3938 14.5734 5.7457 14.928 6.1798 14.928Z" fill="#136470"/>
<path d="M11.8379 13.7101C11.7359 13.1101 11.1599 12.5101 11.8379 12.6061C12.5159 12.7021 12.8579 12.0721 13.3859 12.4501C13.9139 12.8281 13.7879 12.5101 13.9859 13.3921C14.1839 14.2741 13.8779 14.7001 13.5059 14.9281C13.1339 15.1561 13.0679 14.8681 12.5399 15.1681C12.0119 15.4681 11.7179 15.9421 11.5319 15.3421C11.4719 15.131 11.471 14.9076 11.5292 14.696C11.5873 14.4844 11.7024 14.2928 11.8619 14.1421C11.9519 14.0521 11.8379 13.7101 11.8379 13.7101Z" fill="#1E4E57"/>
<path d="M10.5059 22.4039C10.5059 22.4039 11.7899 19.1039 13.8299 19.1459C15.8699 19.1879 15.5999 21.2459 16.1999 21.7079C16.7998 22.1699 17.0758 22.9079 15.8879 22.9079C14.6999 22.9079 14.1419 21.9899 13.3439 21.9779C12.5459 21.9659 12.0779 21.8699 11.4719 22.2479C10.8659 22.6259 10.8419 22.4819 10.6259 22.4819C10.4099 22.4819 10.5059 22.4039 10.5059 22.4039Z" fill="#084F59"/>
<path d="M26.0161 20.058C26.0161 20.058 26.0161 19.698 26.3281 19.68C26.6401 19.662 26.9281 19.68 27.0241 19.872C27.0711 20.2723 26.9914 20.6774 26.7961 21.03C26.6101 21.282 26.1181 21.63 25.8601 21.918C25.6021 22.206 25.2601 22.794 25.1401 22.302C25.0201 21.81 25.0321 21.516 25.3441 21.258C25.5761 21.0223 25.7345 20.7242 25.8001 20.4C25.8496 20.2733 25.9229 20.1572 26.0161 20.058Z" fill="#14869A"/>
<path d="M27.3238 19.1461C27.4265 19.1461 27.5098 18.9957 27.5098 18.8101C27.5098 18.6246 27.4265 18.4741 27.3238 18.4741C27.2211 18.4741 27.1378 18.6246 27.1378 18.8101C27.1378 18.9957 27.2211 19.1461 27.3238 19.1461Z" fill="#14869A"/>
</g>
<defs>
<clipPath id="clip0_1524_1566">
<rect width="30" height="30" fill="white"/>
</clipPath>
</defs>
</svg>
